<?xml version="1.0" standalone="no"?>
<!DOCTYPE svg PUBLIC "-//W3C//DTD SVG 20010904//EN"
 "http://www.w3.org/TR/2001/REC-SVG-20010904/DTD/svg10.dtd">
<svg version="1.0" xmlns="http://www.w3.org/2000/svg"
 width="612.000000pt" height="640.000000pt" viewBox="0 0 612.000000 640.000000"
 preserveAspectRatio="xMidYMid meet">

<g transform="translate(0.000000,640.000000) scale(0.100000,-0.100000)"
fill="#000000" stroke="none">
<path d="M4320 6372 c-26 -26 -30 -38 -30 -84 0 -34 7 -67 20 -91 11 -20 20
-39 20 -41 0 -2 -22 -6 -48 -9 -219 -26 -632 -275 -743 -448 -28 -44 -33 -60
-33 -114 0 -89 34 -150 165 -292 l109 -118 -93 -16 c-206 -37 -358 -140 -432
-294 -16 -33 -53 -90 -83 -127 -162 -203 -242 -444 -242 -730 0 -78 5 -172 10
-208 l10 -65 -33 -24 c-66 -51 -174 -168 -209 -228 -20 -34 -48 -92 -61 -130
-23 -64 -27 -68 -62 -75 -21 -5 -39 -7 -40 -6 -2 2 23 62 54 133 284 647 369
1149 242 1421 -54 115 -169 212 -289 244 -131 34 -318 31 -506 -10 -315 -69
-488 -302 -527 -710 -6 -65 -8 -168 -5 -238 l7 -124 -43 27 c-78 48 -222 113
-298 135 -97 27 -255 36 -345 21 -175 -31 -340 -127 -520 -305 -276 -272 -367
-493 -281 -682 35 -75 69 -117 140 -170 235 -177 714 -287 1363 -312 111 -5
205 -11 208 -13 3 -3 -15 -46 -39 -95 -170 -340 -213 -786 -110 -1142 100
-343 315 -570 619 -653 106 -29 329 -32 453 -5 93 20 218 61 306 100 32 14 60
26 61 26 7 0 26 -63 44 -140 11 -47 36 -129 56 -184 74 -204 135 -445 135
-531 0 -18 8 -39 18 -48 22 -20 56 -23 49 -4 -7 18 -23 104 -42 225 -9 57 -29
145 -44 195 -47 154 -141 409 -168 455 -13 24 -23 45 -21 46 1 2 42 26 90 55
123 73 248 173 358 286 107 109 110 110 130 6 6 -31 44 -158 85 -282 73 -222
115 -392 115 -464 0 -50 15 -75 46 -75 19 0 24 4 20 18 -10 34 -24 108 -31
167 -14 123 -36 203 -137 489 -65 186 -71 201 -101 234 l-21 22 32 43 c102
136 177 299 220 478 l26 105 78 18 c144 32 321 140 403 245 l30 38 130 6 c364
18 661 163 970 472 209 209 392 460 465 639 152 373 187 694 103 961 -35 111
-82 200 -158 299 -59 79 -66 91 -76 158 -24 158 -83 316 -157 424 -48 71 -147
167 -219 213 -229 144 -559 113 -747 -72 -35 -34 -73 -81 -85 -104 -21 -42
-22 -43 -72 -43 l-52 0 7 61 c15 131 76 271 187 429 69 98 208 237 284 282 61
37 170 78 202 77 10 0 31 -21 48 -47 34 -54 99 -92 155 -92 152 0 196 199 66
304 -30 25 -48 31 -101 34 -64 4 -65 4 -105 -35 -28 -29 -41 -52 -46 -81 -4
-23 -10 -40 -13 -37 -4 2 -38 -2 -75 -10 -97 -20 -195 -77 -294 -170 -186
-174 -328 -417 -356 -605 -4 -25 -9 -57 -12 -72 l-6 -28 -91 0 c-138 0 -406
-50 -516 -96 -35 -15 -36 -15 -64 18 -131 154 -161 213 -162 308 0 85 33 147
135 250 129 132 303 249 460 309 109 42 159 48 201 22 49 -30 94 -27 130 8 84
84 -15 280 -150 298 -35 5 -44 2 -71 -25z m939 -877 c243 -58 427 -275 498
-587 25 -111 22 -320 -6 -423 -58 -215 -192 -393 -354 -471 -92 -44 -143 -51
-221 -30 -142 39 -283 180 -391 391 -123 242 -184 573 -141 767 43 194 179
313 411 362 46 9 144 5 204 -9z m-720 -311 l32 -7 -8 -61 c-13 -100 -6 -254
16 -363 97 -471 367 -831 640 -851 276 -19 562 280 621 652 l13 78 19 -23 c37
-48 109 -206 128 -284 58 -228 25 -504 -96 -815 -103 -265 -397 -632 -667
-834 -357 -267 -762 -333 -1157 -191 -299 108 -605 351 -799 635 -89 130 -125
204 -169 340 -74 228 -86 307 -86 540 0 191 2 212 27 305 15 55 50 147 79 205
l52 105 13 -115 c54 -517 329 -955 636 -1011 195 -35 437 131 566 388 81 162
111 394 77 590 -20 116 -73 265 -126 354 -74 124 -197 238 -316 290 -24 11
-44 22 -44 24 0 4 73 20 185 40 74 14 311 19 364 9z m-634 -106 c109 -23 242
-109 321 -207 62 -77 129 -218 161 -337 22 -84 26 -121 26 -239 1 -100 -4
-160 -16 -209 -54 -218 -187 -399 -360 -489 -56 -28 -71 -32 -147 -32 -74 0
-93 4 -141 29 -206 103 -389 413 -459 771 -62 324 13 551 217 657 143 75 246
89 398 56z m-1450 -78 c81 -12 175 -53 228 -99 49 -44 102 -153 117 -243 45
-262 -57 -702 -279 -1210 -95 -217 -87 -206 -162 -238 l-66 -28 -64 86 c-153
208 -376 453 -529 582 -41 35 -78 75 -82 89 -15 51 -20 325 -9 426 16 141 36
217 86 321 74 154 199 250 375 288 156 34 271 42 385 26z m-1326 -930 c99 -24
216 -77 327 -148 l79 -51 13 -93 c27 -198 128 -595 221 -872 23 -66 39 -122
36 -124 -8 -8 -488 17 -635 33 -508 56 -830 157 -985 310 -141 138 -124 305
55 530 67 85 244 253 315 302 186 126 370 162 574 113z m696 -461 c120 -124
302 -339 364 -433 18 -28 22 -41 13 -44 -32 -10 -175 -121 -244 -190 -43 -42
-79 -74 -82 -71 -13 14 -119 369 -165 554 -27 111 -71 323 -71 346 0 19 55
-29 185 -162z m682 -587 c198 -409 546 -800 860 -964 116 -61 215 -95 325
-113 50 -8 93 -17 96 -20 12 -11 -40 -183 -78 -259 -66 -131 -63 -129 -172
-134 -432 -19 -993 350 -1285 846 -89 151 -164 336 -193 476 l-11 55 38 36
c81 76 300 205 348 204 6 0 38 -57 72 -127z m-662 -488 c89 -331 348 -719 650
-972 225 -189 470 -308 723 -351 96 -16 102 -18 85 -33 -44 -38 -189 -125
-318 -190 -138 -69 -141 -70 -199 -63 -90 10 -235 50 -336 94 -382 165 -662
502 -794 954 l-25 86 24 119 c14 66 40 165 59 220 34 99 95 236 103 228 2 -2
15 -43 28 -92z"/>
<path d="M5105 4723 c-78 -41 -116 -105 -123 -209 -11 -165 88 -343 230 -413
237 -119 403 140 268 416 -83 168 -261 267 -375 206z m303 -170 c27 -16 52
-70 52 -108 0 -39 -44 -79 -78 -70 -48 11 -84 57 -89 112 -5 45 -3 52 22 72
30 22 50 21 93 -6z"/>
<path d="M4232 3160 c15 -367 558 -458 883 -148 39 36 68 68 65 71 -3 2 -75
-9 -160 -24 -234 -43 -352 -53 -451 -40 -135 18 -225 70 -312 181 l-28 35 3
-75z"/>
<path d="M3735 4297 c-176 -81 -165 -396 21 -567 144 -132 307 -115 377 40 29
64 27 184 -3 265 -43 114 -118 203 -210 250 -45 23 -146 30 -185 12z m302
-173 c11 -7 29 -34 38 -58 15 -39 16 -50 5 -77 -44 -105 -196 3 -158 112 17
48 61 57 115 23z"/>
<path d="M4155 2063 c40 -98 114 -437 122 -558 12 -179 43 -178 43 1 0 128
-25 269 -70 396 -45 127 -69 178 -87 178 -10 0 -13 -5 -8 -17z"/>
<path d="M4061 1918 c10 -29 18 -61 19 -71 0 -10 22 -87 49 -170 65 -198 90
-296 98 -382 3 -38 10 -76 16 -82 11 -15 51 -18 42 -4 -3 5 -12 58 -20 117 -9
60 -22 136 -30 169 -22 95 -133 417 -153 444 -31 43 -40 34 -21 -21z"/>
<path d="M3740 1464 c0 -3 5 -15 11 -26 20 -37 99 -330 125 -463 13 -71 29
-177 33 -234 6 -69 14 -108 24 -119 14 -13 16 -10 22 32 22 146 -19 420 -91
610 -61 159 -85 206 -105 206 -11 0 -19 -3 -19 -6z"/>
<path d="M3230 970 c42 -79 142 -506 161 -690 6 -63 16 -124 22 -135 10 -19
10 -19 18 4 5 12 9 77 10 144 1 185 -46 385 -140 607 -29 68 -41 86 -59 88
-21 3 -22 2 -12 -18z"/>
</g>
</svg>
